<svg height="36" viewBox="0 0 104 38" width="98" xmlns="http://www.w3.org/2000/svg" xmlns:xlink="http://www.w3.org/1999/xlink"><linearGradient id="a" x1="49.931223%" x2="49.931223%" y1="1.630362%" y2="98.6058%"><stop offset=".3" stop-color="#ff1b2d"/><stop offset=".44" stop-color="#fa1a2c"/><stop offset=".59" stop-color="#ed1528"/><stop offset=".76" stop-color="#d60e21"/><stop offset=".93" stop-color="#b70519"/><stop offset="1" stop-color="#a70014"/></linearGradient><linearGradient id="b" x1="49.984195%" x2="49.984195%" y1=".845757%" y2="99.641628%"><stop offset="0" stop-color="#9c0000"/><stop offset=".7" stop-color="#ff4b4b"/></linearGradient><g fill="none"><path d="m12.7636364 29.7109091c-2.0989091-2.4818182-3.46036367-6.1454546-3.55490913-10.2629091 0 0 0-.884 0-.8934545.09454546-4.1127273 1.45127273-7.781091 3.55490913-10.26290914 2.7087272-3.536 6.7647272-5.78145454 11.2887272-5.78145454 2.7143602.00377102 5.3665092.81323582 7.6203637 2.32581818-3.4616898-3.10658528-7.9469337-4.82831303-12.5981818-4.836h-.0709091c-10.30249862.02364171-18.7098288 8.25236226-18.954661 18.5519784-.24483219 10.2996162 7.76201312 18.9185181 18.0517519 19.4317731h.9029091c4.6725667.0161809 9.1856996-1.6981361 12.6690909-4.8124788-2.2525165 1.5116875-4.9028874 2.3211118-7.6156364 2.3258182-4.5287273 0-8.5847273-2.2454545-11.2934545-5.7861818z" fill="url(#a)"/><path d="m12.7636364 8.29636364c1.7443636-2.05636364 3.9945454-3.30909091 6.4574545-3.30909091 5.5309091 0 10.0170909 6.27309087 10.0170909 14.00690907s-4.5003636 14.0163637-10.0312727 14.0163637c-2.4581818 0-4.7272727-1.2432728-6.4574546-3.309091 2.7276364 3.5407273 6.7789091 5.7861819 11.3029091 5.7861819 2.7133819-.0009739 5.3654498-.8071236 7.6203637-2.3163637 4.0325883-3.60438 6.3378035-8.7566385 6.3378035-14.1652727s-2.3052152-10.56089269-6.3378035-14.16527273c-2.2533244-1.51425384-4.905514-2.32537632-7.6203637-2.33054545-4.524 0-8.58 2.24545454-11.2887272 5.78618182z" fill="url(#b)"/><g fill="#000"><path d="m67.4345455 15.9970909c-1.6163491.0029461-3.1381867.7621157-4.1127273 2.0516364v-1.7727273h-1.3378182v15.3967273h1.3614545v-5.5214546c.9755213 1.2877407 2.4972043 2.0450841 4.1127273 2.0469091 3.1247273 0 5.6727273-2.7370909 5.6727273-6.1029091s-2.5669091-6.0981818-5.6963636-6.0981818zm0 10.8727273c-2.3967273 0-4.3443637-2.1414546-4.3443637-4.7792727 0-2.6378182 1.9476364-4.7792728 4.3443637-4.7792728 2.3967272 0 4.3443636 2.1414546 4.3443636 4.7792728 0 2.6378181-1.9476364 4.784-4.3443636 4.784z"/><path d="m52.5105455 11.5014545c-4.4767273 0-8.1214546 3.8196364-8.1214546 8.509091 0 4.6894545 3.6447273 8.5090909 8.1214546 8.5090909 4.4767272 0 8.1214545-3.8196364 8.1214545-8.5090909 0-4.6894546-3.6447273-8.509091-8.1214545-8.509091zm0 15.7465455c-3.7818182 0-6.8403637-3.2429091-6.8403637-7.2327273s3.068-7.2516363 6.8403637-7.2516363c3.7723636 0 6.8403636 3.2429091 6.8403636 7.2327272 0 3.9898182-3.068 7.2469091-6.8403636 7.2469091z"/><path d="m91.8556364 16.0443636c-.4564321.0198686-.9024633.1426888-1.3047273.3592728-.8289812.4425112-1.4764082 1.1618746-1.8294546 2.0327272l-.0283636.0614546v-2.1272727h-1.3378182v11.5203636h1.3425455v-.0756364c0-2.0752727 0-3.9 0-5.9752727-.0151353-.7593111.1248096-1.5137267.4112727-2.2170909.243232-.6233519.6322726-1.1793557 1.1345455-1.6214546.5684892-.5192583 1.3444811-.7476963 2.1036363-.6192727l.3923637.0756364c.0756363-.3829091.26-.8698182.3356363-1.2527273-.3967062-.1119221-.8074786-.1660549-1.2196363-.1607273z"/><path d="m79.9807273 16.0112727c-3.1247273 0-5.6727273 2.7370909-5.6727273 6.1029091s2.5432727 6.1029091 5.6727273 6.1029091c2.2288312-.0391342 4.2281436-1.3800236 5.1101818-3.4272727l-1.1723636-.6807273c-.6328317 1.6372579-2.1878461 2.733599-3.9425455 2.7796364-2.2643636 0-4.1269091-1.9145455-4.3254545-4.3490909h9.9840643c0-.1418182 0-.2836364 0-.4301819.0141175-3.588-2.316428-6.0981818-5.6538825-6.0981818zm0 1.3236364c2.3636363 0 4.0229091 1.5978182 4.3018182 4.0370909h-8.5941819c.3261819-2.2785455 2.1225455-4.0323636 4.2923637-4.0323636z"/><path d="m102.558182 16.276v1.7727273c-.974541-1.2895207-2.496378-2.0486903-4.1127275-2.0516364-3.1247272 0-5.6727272 2.7370909-5.6727272 6.1029091s2.5432727 6.1029091 5.6727272 6.1029091c1.6155235-.001825 3.1372065-.7591684 4.1127275-2.0469091v1.7349091h1.337818v-11.6149091zm-4.1127275 10.6032727c-2.3967272 0-4.3443636-2.1414545-4.3443636-4.7792727s1.9476364-4.7792727 4.3443636-4.7792727c2.3967275 0 4.3443635 2.1414545 4.3443635 4.7792727s-1.947636 4.7745455-4.3443635 4.7745455z"/></g></g></svg>